<svg width="220" height="59" viewBox="0 0 220 59" fill="none" xmlns="http://www.w3.org/2000/svg">
<g clip-path="url(#clip0_702_409)">
<path d="M24.9419 0.413574H0.791016V58.1711L24.9419 0.413574Z" fill="#FA0C00"/>
<path d="M41.934 0.413574H66.0534V58.1711L41.934 0.413574Z" fill="#FA0C00"/>
<path d="M33.4379 21.7012L48.8095 58.1713H38.7243L34.1302 46.56H22.8807L33.4379 21.7012Z" fill="#FA0C00"/>
<path d="M105.454 37.1436L108.301 45.3092C108.396 45.5138 108.537 45.6082 108.789 45.6082H114.264C114.563 45.6082 114.61 45.4666 114.563 45.1676L103.251 13.7479C103.204 13.4962 103.156 13.449 102.905 13.449H96.1079C95.9191 13.449 95.809 13.5906 95.809 13.7951C95.7145 15.4471 95.573 15.9506 95.3684 16.4383L85.2833 45.1204C85.2361 45.4666 85.3462 45.6082 85.6294 45.6082H90.5225C90.8215 45.6082 90.9631 45.5138 91.0732 45.2148L93.7636 37.1436H105.454ZM95.3212 31.8099C96.8002 27.3416 98.7511 21.6146 99.5378 18.3421H99.585C100.56 21.772 102.858 28.5688 103.896 31.8099H95.3212Z" fill="#FA0C00"/>
<path d="M129.106 46.0961C132.048 46.0961 135.179 45.5612 138.357 44.1924C138.609 44.098 138.656 43.9879 138.656 43.7519C138.562 42.8708 138.452 41.5964 138.452 40.6209V11.042C138.452 10.8532 138.452 10.7588 138.216 10.7588H132.882C132.678 10.7588 132.583 10.8532 132.583 11.1049V21.1271C131.749 21.0327 131.167 20.9855 130.475 20.9855C121.869 20.9855 116.582 26.6653 116.582 33.7611C116.582 41.9897 122.01 46.0961 129.106 46.0961V46.0961ZM132.583 40.6209C131.702 40.9041 130.727 41.0142 129.735 41.0142C125.834 41.0142 122.64 38.8116 122.64 33.4622C122.64 28.7264 125.928 25.9258 130.286 25.9258C131.167 25.9258 131.938 26.0203 132.583 26.272V40.6209Z" fill="#FA0C00"/>
<path d="M155.672 20.9854C148.324 20.9854 143.777 26.6179 143.777 33.5721C143.777 39.7868 147.396 46.096 155.562 46.096C162.469 46.096 167.315 41.014 167.315 33.4148C167.315 26.7123 163.208 20.9854 155.672 20.9854ZM155.373 25.9257C159.527 25.9257 161.289 29.4972 161.289 33.5721C161.289 38.6068 158.693 41.1084 155.672 41.1084C151.943 41.1084 149.74 37.9775 149.74 33.462C149.74 28.8206 152.085 25.9257 155.373 25.9257V25.9257Z" fill="#FA0C00"/>
<path d="M172.829 10.7588C172.624 10.7588 172.483 10.8532 172.483 11.1049V44.5857C172.483 44.7274 172.624 44.9791 172.829 45.0263C175.173 45.75 177.628 46.0961 180.161 46.0961C187.414 46.0961 194.462 41.5964 194.462 32.5339C194.462 25.973 189.963 20.9855 182.914 20.9855C181.293 20.9855 179.783 21.2373 178.461 21.6778L178.398 11.1521C178.398 10.806 178.304 10.7588 177.958 10.7588H172.829ZM188.436 33.1318C188.436 38.5598 184.723 41.1086 180.711 41.1086C179.877 41.1086 179.138 41.0614 178.461 40.8569V26.5709C179.232 26.272 180.161 26.0203 181.876 26.0203C185.746 26.0203 188.436 28.4747 188.436 33.1318Z" fill="#FA0C00"/>
<path d="M214.367 34.8937C216.759 34.8937 218.726 34.8465 219.402 34.6892C219.654 34.642 219.748 34.5476 219.796 34.3431C219.937 33.8081 220 32.691 220 31.3222C220 26.6651 217.199 20.9854 209.962 20.9854C202.567 20.9854 198.461 27.0113 198.461 33.8081C198.461 39.834 201.639 46.096 210.544 46.096C213.88 46.096 216.035 45.561 217.892 44.6799C218.081 44.5855 218.175 44.4282 218.175 44.145V40.07C218.175 39.834 218.033 39.7868 217.892 39.8812C216.035 40.6679 214.021 41.0613 211.819 41.0613C206.831 41.0613 204.566 38.3079 204.424 34.8937H214.367ZM204.424 30.6772C204.817 28.2857 206.328 25.6897 209.71 25.6897C213.439 25.6897 214.415 28.8206 214.415 30.2366C214.415 30.2838 214.415 30.4884 214.415 30.63C214.21 30.6772 213.581 30.6772 211.724 30.6772H204.424Z" fill="#FA0C00"/>
</g>
<defs>
<clipPath id="clip0_702_409">
<rect width="219.209" height="57.7993" fill="white" transform="translate(0.791016 0.392822)"/>
</clipPath>
</defs>
</svg>
