<svg width="221" height="77" viewBox="0 0 221 77" fill="none" xmlns="http://www.w3.org/2000/svg">
<g clip-path="url(#clip0_702_393)">
<path d="M145.121 55.2641H145.071C136.024 61.6474 125.35 68.3348 113.813 75.3767L113.356 75.63C113.306 75.6505 113.261 75.6819 113.225 75.722C113.19 75.762 113.163 75.8097 113.149 75.8614C113.134 75.9131 113.131 75.9674 113.141 76.0203C113.15 76.0732 113.171 76.1232 113.203 76.1667C113.235 76.2101 113.276 76.2458 113.324 76.2711C113.371 76.2963 113.424 76.3105 113.478 76.3125C113.532 76.3145 113.585 76.3042 113.634 76.2826C113.684 76.2609 113.727 76.2283 113.762 76.1873L114.118 75.9847C123.927 70.9185 135.16 64.8898 146.443 58.6584L146.646 58.5571C145.98 57.539 145.467 56.4297 145.121 55.2641V55.2641ZM204.485 7.33816C190.254 -8.31629 98.4639 5.76764 59.481 14.2788L58.5661 14.4814C58.4767 14.5044 58.3977 14.5571 58.3423 14.6307C58.2869 14.7044 58.2583 14.7947 58.2612 14.8867C58.2661 14.9325 58.2815 14.9765 58.306 15.0155C58.3305 15.0545 58.3636 15.0875 58.4028 15.1119C58.4419 15.1362 58.4861 15.1515 58.532 15.1563C58.5779 15.1612 58.6244 15.1557 58.6678 15.14L59.5826 14.9881C91.9075 9.2633 159.149 1.30942 173.584 15.596C178.005 19.9529 176.989 25.5763 171.855 32.213C174.689 34.0584 176.694 36.9281 177.446 40.2176C197.421 26.9949 210.838 14.3295 204.485 7.33816Z" fill="#CC2427"/>
<path d="M150.915 51.1606C151.068 56.6827 154.575 61.1916 159.149 61.1916C167.993 61.1916 171.754 50.35 171.5 43.1054C171.296 37.5833 167.739 33.0744 163.164 33.0744C155.541 33.0744 150.611 43.8653 150.915 51.1606ZM146.24 50.8566C145.884 41.4336 153.304 31.8079 164.028 31.8079C171.246 31.8079 175.921 36.6207 176.176 43.916C176.531 53.8457 169.619 62.9648 158.387 62.9648C151.17 62.9648 146.494 58.2026 146.24 50.8566V50.8566Z" fill="#013D5B"/>
<path d="M44.3859 48.3743C43.9119 48.5658 43.4173 48.7018 42.9119 48.7796L39.5575 49.3875C38.7346 49.4458 37.9355 49.6882 37.2195 50.0968C37.0136 50.2224 36.8384 50.3922 36.7066 50.5937C36.5747 50.7953 36.4895 51.0235 36.4571 51.262C36.4048 51.4849 36.426 51.7186 36.5176 51.9285C36.6091 52.1384 36.7662 52.3133 36.9654 52.4272C37.615 52.7891 38.3587 52.948 39.1 52.8832C39.8583 52.8682 40.6109 52.7488 41.3364 52.5285C42.0049 52.3335 42.6272 52.0061 43.1661 51.5659C43.5223 51.2543 43.786 50.8513 43.9284 50.4007C44.1751 49.7499 44.3291 49.0677 44.3859 48.3743V48.3743ZM53.7377 42.5988C53.6869 43.4601 53.5344 44.22 53.3311 45.5372L51.7555 54.3523C51.6717 54.7089 51.7114 55.0833 51.8683 55.4145C52.0252 55.7457 52.29 56.0141 52.6195 56.1762V56.5308H43.5218V54.3017C42.1407 55.0765 40.6739 55.6886 39.1509 56.1255C37.7426 56.5047 36.2894 56.6922 34.8307 56.6828C31.8829 56.6828 30.2056 56.3788 29.0875 55.3656C27.9693 54.3523 27.3086 53.6431 27.3594 52.1739C27.4686 51.2216 27.8576 50.3228 28.4776 49.5901C29.1392 48.8502 29.9543 48.2625 30.8664 47.8677C32.037 47.3735 33.2671 47.0329 34.5258 46.8544C36.1014 46.6011 38.3377 46.3478 41.3364 46.0945C42.3521 46.0641 43.3526 45.8405 44.2842 45.4359C44.9449 45.1826 45.1482 44.9293 45.2499 44.4227C45.3515 43.916 45.1482 43.0041 43.9284 42.7508C40.6756 42.1429 34.5766 43.1561 31.4254 43.9667L33.1027 39.3565C37.1212 38.7215 41.1813 38.3828 45.2499 38.3433C51.7047 38.3433 53.7885 40.2177 53.7377 42.5988Z" fill="#013D5B"/>
<path d="M79.9636 56.5306L83.1148 38.8497H91.8059L88.6547 56.5306H79.9636ZM83.623 34.7968C83.8772 33.3276 86.1643 32.1624 88.7564 32.1624C91.3485 32.1624 93.1782 33.3276 92.924 34.7968C92.6699 36.2659 90.3828 37.4312 87.7907 37.4312C85.1986 37.4312 83.3689 36.2153 83.623 34.7968Z" fill="#013D5B"/>
<path d="M122.555 48.4249L121.081 48.8302L117.676 49.4382C116.87 49.5039 116.089 49.7461 115.389 50.1474C115.184 50.2622 115.009 50.4225 114.877 50.6158C114.744 50.8091 114.659 51.0302 114.626 51.262C114.566 51.4869 114.577 51.7251 114.659 51.9432C114.741 52.1613 114.89 52.3482 115.084 52.4779C115.541 52.7818 116.253 52.8832 117.269 52.8832C118.025 52.8853 118.778 52.783 119.505 52.5792C120.174 52.3841 120.796 52.0568 121.335 51.6166C121.691 51.305 121.955 50.902 122.098 50.4514C122.312 49.7913 122.465 49.1129 122.555 48.4249V48.4249ZM131.907 42.5988C131.856 43.4601 131.704 44.2707 131.5 45.5372L129.925 54.403C129.841 54.7596 129.881 55.134 130.037 55.4652C130.194 55.7963 130.459 56.0648 130.789 56.2268V56.5308H121.691V54.251C120.322 55.0628 118.853 55.693 117.32 56.1255C115.893 56.4897 114.422 56.6601 112.949 56.6321C110.052 56.6321 108.375 56.3281 107.206 55.3149C106.037 54.3017 105.478 53.5924 105.529 52.1739C105.625 51.2031 106.015 50.2844 106.647 49.5395C107.311 48.8155 108.127 48.2449 109.036 47.8677C110.182 47.3567 111.398 47.0153 112.644 46.8544C114.271 46.6011 116.507 46.3478 119.505 46.0945C120.512 45.9976 121.502 45.7763 122.453 45.4359C123.063 45.1826 123.317 44.9293 123.419 44.4227C123.521 43.916 123.317 43.0041 122.098 42.7508C118.845 42.0922 112.746 43.1561 109.595 43.916L111.272 39.3565C115.29 38.7195 119.35 38.3808 123.419 38.3433C129.874 38.3939 131.958 40.2684 131.907 42.5988Z" fill="#013D5B"/>
<path d="M26.1396 50.198C23.7711 50.7262 21.3495 50.9812 18.9225 50.9579C14.8056 50.9579 11.502 48.9315 11.7053 45.1319C11.8069 42.6494 14.8056 37.3806 22.3278 37.3806C24.7103 37.3257 27.058 37.9591 29.0875 39.2044L30.1548 33.0744C27.4425 32.0006 24.5313 31.517 21.6162 31.6559C11.7053 31.7572 2.20098 36.2154 1.032 45.3345C-0.13698 54.4536 11.197 56.936 16.2287 56.936C19.1258 56.936 22.1753 56.784 24.9707 56.5307L26.1396 50.198Z" fill="#013D5B"/>
<path d="M96.5833 38.7484L97.1932 35.1515L106.24 33.2263L105.274 38.7484H109.747L108.883 42.3454H104.563L101.971 56.5307H93.1781L95.821 42.3454H92.5173L93.1781 38.7991H96.5833V38.7484Z" fill="#013D5B"/>
<path d="M140.7 56.5305H131.856L136.329 31.9089L144.918 32.1116L140.7 56.5305Z" fill="#013D5B"/>
<path d="M68.5278 43.004C67.413 43.0074 66.3279 43.3621 65.4275 44.0172C64.5049 44.7842 63.906 45.8695 63.7503 47.0569C63.4453 48.6274 63.5978 49.6913 64.2077 50.4006C64.5629 50.7447 64.9853 51.0123 65.4488 51.1866C65.9122 51.3609 66.4067 51.4383 66.9014 51.4138C67.6716 51.4293 68.4355 51.2736 69.1377 50.9579C69.8155 50.6454 70.3953 50.1551 70.815 49.5393C71.2903 48.8349 71.6187 48.0424 71.7806 47.2089C72.0348 45.7904 71.8315 44.7772 71.1707 44.0679C70.8335 43.7108 70.4226 43.4307 69.9663 43.2471C69.5101 43.0634 69.0193 42.9805 68.5278 43.004V43.004ZM52.7212 62.6607L56.9397 38.9511H64.5635L63.9536 41.9908C64.7884 40.9499 65.897 40.1606 67.1555 39.711C68.7222 39.0731 70.3936 38.7296 72.0856 38.6978C74.0678 38.6978 75.2876 38.7991 76.7615 39.559C78.1589 40.2579 79.2458 41.4497 79.811 42.9027C80.41 44.4342 80.5512 46.1058 80.2176 47.7155C80.0061 49.0977 79.5194 50.4237 78.7862 51.6157C78.0531 52.8076 77.0882 53.8414 75.9483 54.6562C73.6103 56.328 71.5265 56.784 68.5278 56.784C67.6204 56.8006 66.7148 56.6984 65.8341 56.48C65.228 56.3486 64.6454 56.1265 64.106 55.8214C63.579 55.4425 63.101 55.0001 62.6829 54.5042L61.2598 62.6607H52.7212Z" fill="#013D5B"/>
<path d="M210.076 45.1824C210.025 43.7639 209.314 42.8013 207.84 42.8013C204.282 42.8013 200.521 49.742 199.86 52.5284C205.654 52.5284 210.228 49.0834 210.076 45.1824ZM210.838 56.0747L211.499 56.5306C209.771 60.0263 206.264 62.8633 202.096 62.8633C198.691 62.8633 195.947 60.6342 195.794 56.4293C195.489 48.8301 202.655 41.7881 208.45 41.7881C210.94 41.7881 213.278 42.9026 213.38 45.5877C213.583 51.6164 205.095 53.4403 199.504 53.5416C199.321 54.2696 199.253 55.0216 199.301 55.7707C199.403 58.3038 200.927 60.3809 204.028 60.3809C207.128 60.3809 209.466 58.2025 210.838 56.0747Z" fill="#013D5B"/>
<path d="M176.074 44.9798L178.056 44.7771C178.717 44.7771 179.276 44.9291 179.327 45.537C179.377 46.145 178.666 48.5767 178.513 49.2353L177.141 55.1628C176.633 57.5945 176.023 60.1276 175.515 62.1541H178.971L180.902 52.731C186.899 46.5503 189.187 44.5238 190.559 44.5238C190.71 44.5079 190.862 44.5257 191.005 44.5761C191.148 44.6265 191.278 44.7081 191.385 44.8149C191.492 44.9218 191.574 45.0512 191.625 45.1937C191.675 45.3362 191.693 45.4881 191.677 45.6384C191.728 46.7023 191.016 49.1847 190.813 49.8939L188.78 56.7333C188.373 58.3038 188.018 59.6716 188.068 60.6849C188.119 61.6981 189.034 62.8633 190.356 62.8633C192.897 62.8633 194.777 60.2289 196.353 57.6452L195.896 56.7839C195.235 57.7972 193.761 60.0769 192.541 60.0769C192.185 60.0769 191.83 59.8236 191.83 59.2157C191.871 58.2681 192.042 57.3306 192.338 56.4293L194.574 48.3741C195.133 46.145 195.438 44.7265 195.438 43.9665C195.438 43.2066 194.472 41.7881 193.151 41.7881C190.864 41.7881 187.814 43.4599 181.41 50.8059H181.309L182.122 47.2089C182.579 45.2331 182.986 43.2066 183.393 41.7881C180.984 42.641 178.523 43.3349 176.023 43.8652L176.074 44.9798Z" fill="#013D5B"/>
</g>
<defs>
<clipPath id="clip0_702_393">
<rect width="219.209" height="75.9925" fill="white" transform="translate(0.93042 0.296143)"/>
</clipPath>
</defs>
</svg>
