<svg width="27" height="27" viewBox="0 0 27 27" fill="none" xmlns="http://www.w3.org/2000/svg">
<path d="M23.4375 0.625H2.8125C1.23047 0.625 0 1.91406 0 3.4375V24.0625C0 25.6445 1.23047 26.875 2.8125 26.875H10.8398V17.9688H7.14844V13.75H10.8398V10.5859C10.8398 6.95312 13.0078 4.90234 16.2891 4.90234C17.9297 4.90234 19.5703 5.19531 19.5703 5.19531V8.76953H17.7539C15.9375 8.76953 15.3516 9.88281 15.3516 11.0547V13.75H19.3945L18.75 17.9688H15.3516V26.875H23.4375C24.9609 26.875 26.25 25.6445 26.25 24.0625V3.4375C26.25 1.91406 24.9609 0.625 23.4375 0.625Z" fill="white"/>
</svg>
