<svg width="220" height="60" viewBox="0 0 220 60" fill="none" xmlns="http://www.w3.org/2000/svg">
<g clip-path="url(#clip0_702_383)">
<path d="M88.5439 0.699219H29.5608V59.8857H88.5439V0.699219Z" fill="white"/>
<path d="M118.036 30.3621L88.5439 0.699219V59.9553L118.036 30.3621Z" fill="#DB0011"/>
<path d="M59.0524 30.3621L88.5439 0.699219H29.5608L59.0524 30.3621Z" fill="#DB0011"/>
<path d="M0 30.3621L29.561 59.9553V0.699219L0 30.3621Z" fill="#DB0011"/>
<path d="M59.0524 30.3621L29.5608 59.9553H88.5439L59.0524 30.3621Z" fill="#DB0011"/>
<path d="M143.919 32.1029H133.233V42.6869H127.889V17.8982H133.233V28.0643H143.919V17.8982H149.262V42.6869H143.919V32.1029Z" fill="black"/>
<path d="M162.169 43.1743C156.826 43.1743 152.454 41.0158 152.385 35.0971H157.728C157.797 37.7431 159.324 39.3446 162.238 39.3446C164.39 39.3446 166.888 38.2305 166.888 35.7935C166.888 33.8438 165.222 33.2867 162.447 32.4512L160.642 31.9637C156.756 30.8496 152.871 29.3178 152.871 24.8614C152.871 19.3605 158.006 17.4805 162.655 17.4805C167.443 17.4805 171.606 19.1516 171.676 24.6525H166.333C166.124 22.4243 164.806 21.1013 162.308 21.1013C160.295 21.1013 158.352 22.1458 158.352 24.3739C158.352 26.1844 160.018 26.7414 163.487 27.8555L165.569 28.4822C169.802 29.8052 172.508 31.2674 172.508 35.4453C172.439 41.0158 167.026 43.1743 162.169 43.1743Z" fill="black"/>
<path d="M175.492 17.968H184.097C185.693 17.8984 187.358 17.968 188.954 18.2465C191.938 18.9428 194.228 20.8925 194.228 24.2348C194.228 27.4378 192.215 29.0393 189.301 29.8053C192.632 30.432 195.13 32.1031 195.13 35.7936C195.13 41.4337 189.579 42.687 185.276 42.687H175.561L175.492 17.968ZM184.097 28.2734C186.456 28.2734 188.885 27.786 188.885 24.9311C188.885 22.3547 186.664 21.6584 184.443 21.6584H180.696V28.2734H184.097V28.2734ZM184.582 38.9966C187.08 38.9966 189.509 38.4395 189.509 35.3758C189.509 32.312 187.427 31.7549 184.86 31.7549H180.627V38.9966H184.582Z" fill="black"/>
<path d="M209.008 43.1742C201.028 43.1742 197.489 38.0911 197.489 30.5013C197.489 22.9115 201.445 17.4106 209.286 17.4106C214.213 17.4106 219.001 19.6388 219.14 25.2093H213.588C213.311 22.7026 211.645 21.4492 209.286 21.4492C204.428 21.4492 202.971 26.6716 202.971 30.6406C202.971 34.6095 204.428 39.2052 209.078 39.2052C211.506 39.2052 213.311 37.8822 213.658 35.3755H219.209C218.654 41.0852 214.143 43.1742 209.008 43.1742Z" fill="black"/>
</g>
<defs>
<clipPath id="clip0_702_383">
<rect width="219.209" height="59.1864" fill="white" transform="translate(0 0.699219)"/>
</clipPath>
</defs>
</svg>
