<svg width="27" height="27" viewBox="0 0 27 27" fill="none" xmlns="http://www.w3.org/2000/svg">
<path d="M13.125 10.6445C11.3672 10.6445 9.96094 12.0508 9.96094 13.75C9.96094 15.5078 11.3672 16.9141 13.125 16.9141C14.8242 16.9141 16.2305 15.5078 16.2305 13.75C16.2305 12.0508 14.8242 10.6445 13.125 10.6445ZM20.3906 8.24219C20.0977 7.42188 19.4531 6.77734 18.6328 6.48438C17.4023 5.95703 14.4727 6.07422 13.125 6.07422C11.7188 6.07422 8.78906 5.95703 7.55859 6.48438C6.73828 6.77734 6.09375 7.42188 5.80078 8.24219C5.33203 9.47266 5.39062 12.4023 5.39062 13.75C5.39062 15.1562 5.33203 18.0859 5.80078 19.3164C6.09375 20.1367 6.73828 20.7812 7.55859 21.0742C8.78906 21.6016 11.7188 21.4844 13.125 21.4844C14.4727 21.4844 17.4023 21.6016 18.6328 21.0742C19.4531 20.7812 20.0977 20.1367 20.3906 19.3164C20.918 18.0859 20.8008 15.1562 20.8008 13.75C20.8008 12.4023 20.918 9.47266 20.3906 8.24219ZM13.125 18.5547C10.4297 18.5547 8.32031 16.4453 8.32031 13.75C8.32031 11.1133 10.4297 8.94531 13.125 8.94531C15.7617 8.94531 17.9297 11.1133 17.9297 13.75V13.8086C17.9297 16.4453 15.7617 18.6133 13.125 18.6133V18.5547ZM18.1055 9.88281C17.4609 9.88281 16.9922 9.41406 16.9922 8.76953C16.9922 8.125 17.4609 7.65625 18.1055 7.65625C18.6914 7.65625 19.2188 8.125 19.2188 8.76953C19.2188 9.41406 18.6914 9.88281 18.1055 9.88281ZM23.4375 0.625H2.8125C1.23047 0.625 0 1.91406 0 3.4375V24.0625C0 25.6445 1.23047 26.875 2.8125 26.875H23.4375C24.9609 26.875 26.25 25.6445 26.25 24.0625V3.4375C26.25 1.91406 24.9609 0.625 23.4375 0.625ZM22.3828 17.6172C22.3242 19.1406 21.9727 20.4883 20.918 21.543C19.8047 22.6562 18.457 23.0078 16.9922 23.0664C15.4102 23.1836 10.7812 23.1836 9.25781 23.0664C7.73438 23.0078 6.38672 22.6562 5.33203 21.543C4.21875 20.4883 3.86719 19.1406 3.80859 17.6172C3.69141 16.0938 3.69141 11.4648 3.80859 9.88281C3.86719 8.41797 4.21875 7.07031 5.33203 5.95703C6.38672 4.90234 7.73438 4.55078 9.25781 4.49219C10.7812 4.375 15.4102 4.375 16.9922 4.49219C18.457 4.55078 19.8047 4.90234 20.918 6.01562C21.9727 7.07031 22.3242 8.41797 22.3828 9.94141C22.5 11.4648 22.5 16.0938 22.3828 17.6172Z" fill="white"/>
</svg>
