<svg width="27" height="27" viewBox="0 0 27 27" fill="none" xmlns="http://www.w3.org/2000/svg">
<path d="M24.375 0.625H1.81641C0.820312 0.625 0 1.50391 0 2.55859V25C0 26.0547 0.820312 26.875 1.81641 26.875H24.375C25.3711 26.875 26.25 26.0547 26.25 25V2.55859C26.25 1.50391 25.3711 0.625 24.375 0.625ZM7.91016 23.125H4.04297V10.6445H7.91016V23.125ZM5.97656 8.88672C4.6875 8.88672 3.69141 7.89062 3.69141 6.66016C3.69141 5.42969 4.6875 4.375 5.97656 4.375C7.20703 4.375 8.20312 5.42969 8.20312 6.66016C8.20312 7.89062 7.20703 8.88672 5.97656 8.88672ZM22.5 23.125H18.5742V17.0312C18.5742 15.625 18.5742 13.75 16.582 13.75C14.5312 13.75 14.2383 15.332 14.2383 16.9727V23.125H10.3711V10.6445H14.0625V12.3438H14.1211C14.6484 11.3477 15.9375 10.293 17.8125 10.293C21.7383 10.293 22.5 12.9297 22.5 16.2695V23.125Z" fill="white"/>
</svg>
