<svg width="27" height="27" viewBox="0 0 27 27" fill="none" xmlns="http://www.w3.org/2000/svg">
<path d="M23.4375 0.625H2.8125C1.23047 0.625 0 1.91406 0 3.4375V24.0625C0 25.6445 1.23047 26.875 2.8125 26.875H23.4375C24.9609 26.875 26.25 25.6445 26.25 24.0625V3.4375C26.25 1.91406 24.9609 0.625 23.4375 0.625ZM20.5664 9.94141C20.5664 10.1172 20.5664 10.293 20.5664 10.4688C20.5664 15.5078 16.6992 21.3672 9.60938 21.3672C7.44141 21.3672 5.44922 20.7812 3.75 19.668C4.04297 19.7266 4.33594 19.7266 4.62891 19.7266C6.44531 19.7266 8.08594 19.082 9.43359 18.0859C7.73438 18.0273 6.32812 16.9141 5.80078 15.3906C6.44531 15.5078 6.97266 15.5078 7.55859 15.332C5.80078 14.9805 4.51172 13.457 4.51172 11.582V11.5234C4.98047 11.8164 5.56641 11.9922 6.21094 11.9922C5.15625 11.2891 4.51172 10.1172 4.51172 8.82812C4.51172 8.06641 4.6875 7.42188 5.03906 6.83594C6.91406 9.17969 9.78516 10.7031 12.9492 10.8789C12.4219 8.30078 14.3555 6.13281 16.6992 6.13281C17.8125 6.13281 18.8086 6.60156 19.5117 7.36328C20.3906 7.1875 21.2109 6.89453 21.9727 6.42578C21.6797 7.36328 21.0352 8.06641 20.2734 8.53516C21.0352 8.47656 21.7969 8.24219 22.5 7.94922C21.9727 8.71094 21.2695 9.41406 20.5664 9.94141Z" fill="white"/>
</svg>
